<?xml version="1.0" ?><!DOCTYPE svg  PUBLIC '-//W3C//DTD SVG 1.1//EN'  'http://www.w3.org/Graphics/SVG/1.1/DTD/svg11.dtd'><svg enable-background="new 0 0 48 48" height="48px" version="1.1" viewBox="0 0 48 48" width="48px" xml:space="preserve" xmlns="http://www.w3.org/2000/svg" xmlns:xlink="http://www.w3.org/1999/xlink"><g id="Layer_4"><g><path d="M45.572,0.083H2.428c-1.324,0-2.397,1.071-2.397,2.396v28.659c0,1.325,1.073,2.397,2.397,2.397h19.074    v7.293l-7.24,7.088h7.24h4.995h7.24l-7.24-7.088v-7.293h19.075c1.324,0,2.396-1.072,2.396-2.397V2.479    C47.969,1.154,46.896,0.083,45.572,0.083z M43.175,26.396c0,1.325-1.072,2.397-2.396,2.397H7.222    c-1.323,0-2.396-1.072-2.396-2.397V7.222c0-1.324,1.073-2.396,2.396-2.396h33.557c1.324,0,2.396,1.072,2.396,2.396V26.396z" fill="#241F20"/><polygon fill="#241F20" points="33.756,10.817 25.327,19.248 19.747,13.671 16.174,17.245 16.198,17.269 7.068,26.396     14.212,26.396 19.771,20.84 25.332,26.396 28.906,22.825 28.896,22.822 37.305,14.415 39.083,16.22 40.933,7.299 31.911,8.949       "/></g></g></svg>