<?xml version="1.0" ?><!DOCTYPE svg  PUBLIC '-//W3C//DTD SVG 1.1//EN'  'http://www.w3.org/Graphics/SVG/1.1/DTD/svg11.dtd'><svg enable-background="new 0 0 48 48" height="48px" version="1.1" viewBox="0 0 48 48" width="48px" xml:space="preserve" xmlns="http://www.w3.org/2000/svg" xmlns:xlink="http://www.w3.org/1999/xlink"><g id="Layer_4"><g><polygon fill="#241F20" points="24.006,0.052 24.003,0.043 23.997,0.047 23.989,0.043 23.986,0.052 3.466,8.171 3.466,11.328     3.466,11.697 3.466,14.854 3.518,14.985 23.997,6.88 43.928,14.77 43.936,14.772 44.473,14.985 44.48,14.967 44.533,14.985     44.533,14.835 44.533,14.494 44.533,11.831 44.533,11.679 44.533,11.337 44.533,11.33 44.533,8.176   "/><path d="M41.113,22.997V22.37v-1.829v-0.753v-2.631L24,10.393L6.889,17.158v2.631v0.753v1.829v0.626v21.548H3.466    v3.412h3.422h34.225h3.42v-3.412h-3.42V22.997z M24,44.536H10.311V24.002H24V44.536z M37.688,34.277H27.421V24.012h10.267V34.277z    " fill="#241F20"/></g></g></svg>