<?xml version="1.0" ?><!DOCTYPE svg  PUBLIC '-//W3C//DTD SVG 1.1//EN'  'http://www.w3.org/Graphics/SVG/1.1/DTD/svg11.dtd'><svg enable-background="new 0 0 48 48" height="48px" version="1.1" viewBox="0 0 48 48" width="48px" xml:space="preserve" xmlns="http://www.w3.org/2000/svg" xmlns:xlink="http://www.w3.org/1999/xlink"><g id="Layer_4"><path d="M45.55,16.744h-1.686c-1.297,0-2.346,1.048-2.346,2.345c0,0.152,0.06,0.284,0.088,0.428l-0.019,0.008   L35.485,5.538l-0.004,0.004c-0.347-0.865-1.183-1.479-2.172-1.479H14.677c-0.849,0-1.559,0.472-1.971,1.15   c-0.005-0.002-0.038-0.009-0.038-0.009l-0.083,0.187c-0.033,0.067-0.062,0.128-0.088,0.197L6.48,19.082   c-0.003-1.292-1.05-2.338-2.344-2.338H2.45c-1.296,0-2.345,1.048-2.345,2.345c0,1.116,0.797,2.007,1.842,2.244l0.019,0.052   l3.294,0.504c-0.048,0.169-0.097,0.343-0.097,0.531v9.235v0.221v3.078c0,1.049,0.7,1.906,1.649,2.203v4.436   c0,1.297,1.051,2.345,2.346,2.345h2.394c1.295,0,2.345-1.048,2.345-2.345V37.3h20.243v4.293c0,1.297,1.051,2.345,2.345,2.345h2.396   c1.294,0,2.346-1.048,2.346-2.345v-4.472c0.858-0.349,1.467-1.183,1.467-2.167v-3.078v-0.221V22.42   c0-0.184-0.049-0.344-0.094-0.508l3.438-0.527l0.018-0.052c1.045-0.237,1.842-1.128,1.842-2.244   C47.896,17.792,46.846,16.744,45.55,16.744z M9.453,19.658l4.982-11.936l0.039-0.001c0.279-0.985,1.146-1.72,2.22-1.72H31.16   c1.075,0,1.94,0.732,2.22,1.717l0.037,0.004l4.947,11.936H9.453z" fill="#241F20"/></g></svg>