<?xml version="1.0" ?><!DOCTYPE svg  PUBLIC '-//W3C//DTD SVG 1.1//EN'  'http://www.w3.org/Graphics/SVG/1.1/DTD/svg11.dtd'><svg enable-background="new 0 0 48 48" height="48px" version="1.1" viewBox="0 0 48 48" width="48px" xml:space="preserve" xmlns="http://www.w3.org/2000/svg" xmlns:xlink="http://www.w3.org/1999/xlink"><g id="Layer_4"><g><path d="M22.165,31.755c0,0,0.815-3.229-1.058-5.464l2.237-5.387l11.945,7.635l1.913-2.998l-13.676-8.737    l0.001-0.004l-0.018-0.008l-0.271-0.172l-0.031,0.049l-4.627-1.92L14.632,0.005h-3.834l4.776,17.838l-1.703,4.097    c-0.002,0.008-0.268,0.745-0.348,2.278c0,0-0.803,6.255,3.544,9.692l-3.853,14.086h3.925l3.059-11.19l10.676,11.19h5.471    l0.007-0.004L25.224,36.323L22.165,31.755z" fill="#241F20"/><circle cx="23.697" cy="11.417" fill="#241F20" r="3.986"/></g></g></svg>