<?xml version="1.0" ?><!DOCTYPE svg  PUBLIC '-//W3C//DTD SVG 1.1//EN'  'http://www.w3.org/Graphics/SVG/1.1/DTD/svg11.dtd'><svg enable-background="new 0 0 48 48" height="48px" version="1.1" viewBox="0 0 48 48" width="48px" xml:space="preserve" xmlns="http://www.w3.org/2000/svg" xmlns:xlink="http://www.w3.org/1999/xlink"><g id="Layer_4"><g><path d="M24,0.058C10.776,0.058,0.058,10.776,0.058,24c0,13.222,10.718,23.942,23.942,23.942    c13.222,0,23.942-10.721,23.942-23.942C47.942,10.776,37.222,0.058,24,0.058z M18.109,42.539l1.937-2.098l-4.28-5.34l-6.399-2.062    L8.224,35.35c-2.277-3.161-3.639-7.021-3.67-11.208l2.324,1.326l4.236-5.374l0.566-6.699l-3.41-0.806    c2.368-3.258,5.712-5.752,9.613-7.044l-0.379,2.734l6.562,1.937l6.432-1.961l-0.405-2.718c3.918,1.292,7.274,3.798,9.647,7.067    l-3.273,0.683l0.383,6.832l4.013,5.396l2.584-1.379c-0.026,4.097-1.328,7.888-3.518,11.011l-1.157-2.248l-6.482,2.194l-4.127,5.31    l1.96,2.055c-1.926,0.641-3.981,0.999-6.122,0.999C21.946,43.453,19.967,43.131,18.109,42.539z" fill="#241F20"/><polygon fill="#241F20" points="31.499,21.929 24,16.483 16.548,21.929 19.319,30.384 28.633,30.384   "/></g></g></svg>