<?xml version="1.0" ?><!DOCTYPE svg  PUBLIC '-//W3C//DTD SVG 1.1//EN'  'http://www.w3.org/Graphics/SVG/1.1/DTD/svg11.dtd'><svg enable-background="new 0 0 48 48" height="48px" version="1.1" viewBox="0 0 48 48" width="48px" xml:space="preserve" xmlns="http://www.w3.org/2000/svg" xmlns:xlink="http://www.w3.org/1999/xlink"><g id="Layer_3"><path d="M38.729,33.125c0-5.186-2.698-9.712-6.746-12.334V6.814v-0.85V0.147h-4.229V3.48L24,5.965L20.192,3.48   V0.147h-4.174v5.818v1.328v13.498c-4.049,2.622-6.747,7.148-6.747,12.334c0,0.252,0.026,0.496,0.037,0.746H9.295v8.393   c0,0,4.465,1.93,6.449,3.059c0.002,0.002,0.002,0.002,0.004,0.002c2.354,1.596,5.193,2.529,8.251,2.529   c3.24,0,6.224-1.059,8.656-2.83c0.037-0.025,0.072-0.037,0.112-0.064c2.297-1.621,5.96-2.695,5.96-2.695v-8.393h-0.037   C38.705,33.621,38.729,33.377,38.729,33.125z" fill="#241F20"/></g></svg>