<?xml version="1.0" ?><!DOCTYPE svg  PUBLIC '-//W3C//DTD SVG 1.1//EN'  'http://www.w3.org/Graphics/SVG/1.1/DTD/svg11.dtd'><svg enable-background="new 0 0 48 48" height="48px" version="1.1" viewBox="0 0 48 48" width="48px" xml:space="preserve" xmlns="http://www.w3.org/2000/svg" xmlns:xlink="http://www.w3.org/1999/xlink"><g id="Layer_4"><path d="M47.199,28.99l0.006-0.025l-0.691-0.51l0.004-0.014L28.312,15.294v-2.949v-0.816V6.537   c0-2.407-1.951-4.356-4.357-4.356c-2.407,0-4.356,1.949-4.356,4.356v4.992v0.816v2.949L4.577,26.488l-3.521,2.285l0.013,0.035   c-0.612,0.389-1.043,1.039-1.043,1.816c0,1.207,0.977,2.184,2.184,2.184c0.367,0,0.697-0.113,1-0.273l16.389-4.455v6.912   l-7.288,8.734v0.678v1.416h2.183h0.284l7.615-4.094v0.594v0.969v0.969c0,0.703,0.471,1.273,1.111,1.471   c0.077,0.031,0.164,0.035,0.248,0.051c0.119,0.029,0.205,0.041,0.205,0.041c0.16,0,0.311-0.033,0.452-0.092   c0.638-0.197,1.11-0.768,1.11-1.471v-0.969V42.32v-0.621l6.66,4.121h1.148h2.184v-1.416v-0.541v-0.172l-7.197-8.699V28.08   l16.482,4.459c0.303,0.158,0.631,0.27,0.996,0.27c1.205,0,2.182-0.977,2.182-2.184C47.973,29.965,47.664,29.391,47.199,28.99z" fill="#241F20"/></g></svg>