<?xml version="1.0" ?><!DOCTYPE svg  PUBLIC '-//W3C//DTD SVG 1.1//EN'  'http://www.w3.org/Graphics/SVG/1.1/DTD/svg11.dtd'><svg enable-background="new 0 0 48 48" height="48px" version="1.1" viewBox="0 0 48 48" width="48px" xml:space="preserve" xmlns="http://www.w3.org/2000/svg" xmlns:xlink="http://www.w3.org/1999/xlink"><g id="Layer_3"><g><path d="M24.001,15.02v12.792l10.708,6.967c1.307-2.005,2.084-4.395,2.084-6.967    C36.793,20.745,31.066,15.02,24.001,15.02z" fill="#241F20"/><path d="M42.482,16.145l0.52-0.522l0.523-0.523c0.99-0.99,0.99-2.592,0-3.582l-3.582-3.582    c-0.99-0.992-2.594-0.989-3.584,0l-0.521,0.521l-0.521,0.522l-1.162,1.161c-1.938-1.126-4.076-1.943-6.355-2.377V6.158    c1.4,0,2.533-1.135,2.533-2.533V2.604c0-1.399-1.133-2.534-2.533-2.534H20.2c-1.4,0-2.534,1.135-2.534,2.534v1.021    c0,1.398,1.134,2.533,2.534,2.533v1.604C10.825,9.542,3.732,17.771,3.732,27.662C3.732,38.858,12.807,47.93,24,47.93    c11.191,0,20.268-9.071,20.268-20.268c0-3.812-1.062-7.37-2.893-10.415L42.482,16.145z M24,42.825    c-8.374,0-15.163-6.788-15.163-15.163c0-8.374,6.789-15.164,15.163-15.164c8.371,0,15.162,6.79,15.162,15.164    C39.162,36.037,32.371,42.825,24,42.825z" fill="#241F20"/></g></g></svg>